PathFileType	4	(X/Y/Z)	./resultDataOpenSim/trcMotMarkerGrf/sub09/qtm-12-02.trc
DataRate	CameraRate	NumFrames	NumMarkers	Units	OrigDataRate	OrigDataStartFrame	OrigNumFrames
250.000000	250.000000	7	24	m	250.000000	422	482
Frame#	Time	L.Toe.Tip			R.Toe.Tip			L.Ankle.Lat			R.Ankle.Lat			L.Ankle.Med			R.Ankle.Med			L.Heel			R.Heel			L.Knee.Lat			R.Knee.Lat			L.Knee.Med			R.Knee.Med			L.Thigh.Upper			R.Thigh.Upper			L.ASIS			R.ASIS			V.Sacral			L.Acromium			R.Acromium			C7			L.Elbow			R.Elbow			L.Wrist.Lat			R.Wrist.Lat
		X1	Y1	Z1	X2	Y2	Z2	X3	Y3	Z3	X4	Y4	Z4	X5	Y5	Z5	X6	Y6	Z6	X7	Y7	Z7	X8	Y8	Z8	X9	Y9	Z9	X10	Y10	Z10	X11	Y11	Z11	X12	Y12	Z12	X13	Y13	Z13	X14	Y14	Z14	X15	Y15	Z15	X16	Y16	Z16	X17	Y17	Z17	X18	Y18	Z18	X19	Y19	Z19	X20	Y20	Z20	X21	Y21	Z21	X22	Y22	Z22	X23	Y23	Z23	X24	Y24	Z24

422	1.684	1.788078	0.10487031	-0.12998623	1.0666532	0.039669349	0.052495353	1.63538	0.079611324	-0.15087245	0.93462849	0.095723828	0.089590847	1.66093	0.10751991	-0.058621385	0.96147188	0.13057909	-0.0016325411	1.5887888	0.020210323	-0.099534613	0.86056574	0.098195903	0.038384002	1.507215	0.47951477	-0.17891373	1.2063358	0.47654246	0.13462491	1.5230729	0.47678352	-0.052621758	1.1852624	0.46671397	0.0098406545	1.3056935	0.84424905	-0.20491199	1.2653116	0.87775861	0.16719779	1.377703	0.93809801	-0.14400543	1.3703243	0.95642256	0.098611319	1.2034817	0.99272455	-0.03883877	1.3373836	1.3932685	-0.21466849	1.3244202	1.4180594	0.1162173	1.2623664	1.4523826	-0.05062388	1.1672653	1.0652675	-0.26426272	1.1946853	1.0737024	0.21882115	1.2735671	0.82559015	-0.29940325	1.3986257	0.88570305	0.22942749
423	1.688	1.7910449	0.098441414	-0.13112554	1.0668593	0.039747567	0.052591399	1.6377	0.077611012	-0.15060379	0.93601669	0.097850994	0.089847546	1.6640746	0.10573442	-0.058604699	0.9635039	0.13231307	-0.0014207221	1.5896451	0.020427911	-0.098821472	0.86207028	0.10137989	0.038254847	1.513869	0.47874785	-0.18005211	1.2117761	0.47568243	0.13473965	1.5309325	0.4764249	-0.053880629	1.1914165	0.4654455	0.0099407941	1.3116123	0.84337788	-0.20598577	1.2716339	0.87666345	0.16613773	1.3843104	0.93733557	-0.14498872	1.3768831	0.95533529	0.097731324	1.2099772	0.99168147	-0.039706762	1.3429753	1.3924169	-0.21563863	1.3297163	1.4170348	0.11524761	1.2676394	1.4512844	-0.051645601	1.1735262	1.0641205	-0.26537908	1.2001586	1.0726187	0.21703015	1.2798411	0.82452106	-0.30061242	1.4030815	0.88408214	0.22916061
424	1.692	1.7944076	0.091780673	-0.1323706	1.0670612	0.03983867	0.052640926	1.6401983	0.076203666	-0.15024947	0.93758289	0.10002233	0.090087414	1.6678566	0.10439553	-0.05861851	0.96565325	0.13409344	-0.0012032034	1.5907276	0.021467028	-0.097770285	0.86368776	0.10467631	0.038110851	1.5202319	0.47809307	-0.18125998	1.2172796	0.4747902	0.13481598	1.5375938	0.47566901	-0.055445869	1.1977547	0.4640994	0.010049663	1.3177328	0.84250091	-0.20704117	1.2779769	0.87554961	0.16502557	1.3908717	0.93664385	-0.1458995	1.3834844	0.9542449	0.096840256	1.2164449	0.99074788	-0.04059807	1.3485852	1.3915889	-0.21661976	1.3350131	1.4160383	0.11427703	1.2729231	1.4502536	-0.052673747	1.1798047	1.0629832	-0.2665269	1.2053126	1.0716581	0.21542929	1.2861597	0.82347469	-0.30182735	1.4074891	0.88246122	0.22890099
425	1.696	1.798058	0.085523906	-0.13356599	1.0673164	0.039963941	0.052688133	1.6428533	0.075336333	-0.15006683	0.93921073	0.10230514	0.0903047	1.6720811	0.10333772	-0.05880969	0.96791584	0.13592318	-0.00096596815	1.5920721	0.023041157	-0.096789095	0.86543318	0.1080914	0.037982852	1.5262564	0.47767663	-0.18240748	1.2228617	0.47387113	0.13485784	1.542537	0.47447386	-0.057438842	1.2042322	0.46268248	0.010130199	1.3241275	0.84168537	-0.20811284	1.2843485	0.8744076	0.16386923	1.3973782	0.93604719	-0.14674029	1.3901194	0.95314898	0.09594048	1.2228562	0.98995188	-0.041521303	1.3542176	1.3907939	-0.21761641	1.3403026	1.4150815	0.11331377	1.2782393	1.4493187	-0.053729726	1.1861015	1.06186	-0.26770279	1.2101427	1.0708151	0.21391754	1.292523	0.82245554	-0.30304965	1.4118452	0.88083685	0.22864796
426	1.7	1.8016872	0.080097332	-0.13464279	1.0676513	0.040123627	0.052767331	1.6455951	0.074782979	-0.15024263	0.94079015	0.10473304	0.090548447	1.6762684	0.10237022	-0.059219962	0.97028975	0.13780386	-0.0006970581	1.5936047	0.024687943	-0.096304095	0.86732868	0.11163769	0.037904523	1.5321943	0.4776172	-0.18346706	1.2285543	0.47292726	0.13486368	1.5466341	0.47320577	-0.059605577	1.2108496	0.46121281	0.010158919	1.3308443	0.84101182	-0.20924078	1.2907794	0.87322978	0.16268641	1.4038278	0.93556277	-0.14753203	1.3967832	0.95205469	0.095031062	1.2292067	0.98928841	-0.042452362	1.359876	1.3900373	-0.21864116	1.3455881	1.414173	0.11236555	1.2836314	1.4484986	-0.054825785	1.1924207	1.060746	-0.26889541	1.214835	1.0700479	0.2124024	1.2989372	0.82146534	-0.30427788	1.4161612	0.87921139	0.22839855
427	1.704	1.8049856	0.075486643	-0.13555901	1.0680414	0.040297982	0.05289147	1.648339	0.0743148	-0.15079085	0.9423376	0.10727005	0.090846673	1.67996	0.10138858	-0.059804801	0.97277869	0.13973601	-0.00039298602	1.5951941	0.026062207	-0.096490852	0.86939036	0.11532665	0.037899718	1.5384639	0.47798258	-0.18453093	1.2343748	0.4719724	0.13484073	1.5515767	0.47245923	-0.061468168	1.2176333	0.45971655	0.010131169	1.3378672	0.8405613	-0.21044446	1.2972912	0.87201297	0.16150423	1.4102181	0.93521051	-0.14829824	1.4034537	0.95097741	0.094113138	1.2354982	0.98873295	-0.043366737	1.3655585	1.3893223	-0.21969995	1.3508784	1.4133185	0.1114333	1.2891247	1.4477952	-0.055957838	1.198772	1.0596364	-0.27008558	1.2196679	1.0693008	0.21086731	1.3054072	0.82050275	-0.30550789	1.4204469	0.87759162	0.22814818
428	1.708	1.8078279	0.071353223	-0.13620714	1.0684484	0.040469581	0.053060314	1.6510185	0.073828991	-0.15158385	0.94395822	0.10987614	0.091162617	1.6830093	0.10040921	-0.060497787	0.97539794	0.14172399	-5.4965128e-05	1.5967084	0.027107091	-0.097189409	0.87162973	0.11916776	0.037971796	1.5453109	0.47875138	-0.18569523	1.2403223	0.47104224	0.13480696	1.5580791	0.47255617	-0.062861108	1.2245699	0.4582225	0.010062686	1.345105	0.84040051	-0.21171305	1.3038697	0.87075672	0.16034714	1.4165458	0.93501039	-0.14905493	1.4100941	0.94993693	0.093192587	1.2417263	0.98825812	-0.04426118	1.3712553	1.3886569	-0.22078402	1.3561773	1.412525	0.11051128	1.2946815	1.4471912	-0.057115476	1.2051702	1.0585412	-0.27125026	1.2247936	1.0685475	0.20932251	1.3119289	0.81957168	-0.30673873	1.4246947	0.87598242	0.22789526
